<svg width="178" height="24" viewBox="0 0 178 24" fill="none" xmlns="http://www.w3.org/2000/svg">
<g id="layer1">
<g id="g21177">
<path id="path13203" d="M155.373 0L151.008 2.50934L151.008 2.50998V6.55134H147.592V10.2992H151.008V17.9211C151.008 21.7005 153.191 23.6852 156.67 23.6852C157.967 23.6852 158.912 23.6802 160.075 23.37L160.054 19.6671C159.421 19.6671 158.663 19.6534 157.84 19.6534C156.259 19.6534 155.373 18.8665 155.373 16.9137V10.2992H160.213V6.55134H155.373V1.57476V0ZM143.823 0.315141C143.48 0.315125 143.139 0.382501 142.822 0.513427C142.504 0.644352 142.216 0.836261 141.973 1.07819C141.73 1.32013 141.537 1.60735 141.406 1.92345C141.274 2.23955 141.207 2.57835 141.207 2.92049C141.207 3.26264 141.274 3.60144 141.406 3.91754C141.537 4.23364 141.73 4.52086 141.973 4.7628C142.216 5.00473 142.504 5.19664 142.822 5.32756C143.139 5.45849 143.48 5.52587 143.823 5.52586C144.167 5.52587 144.507 5.45849 144.824 5.32756C145.142 5.19664 145.43 5.00473 145.673 4.7628C145.916 4.52086 146.109 4.23364 146.24 3.91754C146.372 3.60144 146.44 3.26264 146.44 2.92049C146.44 2.57835 146.372 2.23955 146.24 1.92345C146.109 1.60735 145.916 1.32013 145.673 1.07819C145.43 0.836261 145.142 0.644352 144.824 0.513427C144.507 0.382501 144.167 0.315125 143.823 0.315141ZM106.345 1.0711V23.6852H110.394V21.2597C111.691 23.0235 113.526 24 115.708 24C120.263 24 123.204 20.1892 123.204 15.2758C123.204 10.2995 120.263 6.55134 115.708 6.55134C113.684 6.55134 111.976 7.40185 110.742 9.03963V1.0711H106.345ZM96.1388 6.55134C91.2678 6.55134 87.7567 10.2049 87.7567 15.2127C87.7567 20.4725 91.1412 23.9684 96.2019 23.9684C100.314 23.9684 103.256 21.7952 104.204 17.9842H99.8396C99.3335 19.6535 98.0365 20.5985 96.1071 20.5985C93.8614 20.5985 92.5331 19.0867 92.2484 16.3466H104.236C105.027 10.8664 101.484 6.55134 96.1388 6.55134ZM131.703 6.55134C127.496 6.55134 124.808 8.72467 124.808 11.8428C124.808 14.4569 126.642 16.126 129.679 16.6614L132.715 17.2286C134.328 17.5435 135.024 17.9845 135.024 19.0553C135.024 20.2522 133.727 20.7873 132.019 20.7873C129.837 20.7873 128.35 19.6852 128.319 17.9529H124.112C124.46 21.7009 127.148 24 131.956 24C136.764 24 139.452 21.8269 139.452 18.2994C139.452 15.8742 137.776 14.3622 134.486 13.7323L131.228 13.1339C129.71 12.8505 129.014 12.441 129.014 11.4332C129.014 10.3623 130.09 9.76401 131.703 9.76401C133.569 9.76401 134.803 10.7718 134.961 12.4096H139.167C138.851 8.78755 135.941 6.55134 131.703 6.55134ZM169.723 6.55134C164.852 6.55134 161.342 10.2049 161.342 15.2127C161.342 20.4725 164.726 23.9684 169.787 23.9684C173.899 23.9684 176.84 21.7952 177.789 17.9842H173.424C172.918 19.6535 171.621 20.5985 169.692 20.5985C167.446 20.5985 166.118 19.0867 165.833 16.3466H177.821C178.612 10.8664 175.069 6.55134 169.723 6.55134ZM63.1586 6.86617L67.9664 23.6852H72.3629L75.5259 12.756L78.7205 23.6852H83.0854L87.9249 6.86617H83.5915L80.745 17.5118L77.74 6.86617H73.4066L70.3071 17.5118L67.4286 6.86617H63.1586ZM141.625 6.86617V23.6852H146.021V6.86617H141.625ZM96.044 9.76401C98.1316 9.76401 99.46 11.2441 99.5865 13.5748H92.3115C92.691 11.0866 93.988 9.76401 96.044 9.76401ZM169.629 9.76401C171.716 9.76401 173.045 11.2441 173.171 13.5748H165.896C166.276 11.0866 167.573 9.76401 169.629 9.76401ZM114.728 10.4252C116.878 10.4252 118.681 12.0633 118.681 15.2758C118.681 18.4254 116.878 20.0945 114.728 20.0945C112.545 20.0945 110.774 18.3937 110.774 15.2127C110.774 12.0316 112.608 10.4252 114.728 10.4252Z" fill="white"/>
<path id="path13221" d="M32.9671 1.05029L29.0981 23.6637H33.4947L34.8311 15.8531L39.9471 23.6637H45.5455L39.2312 14.9083L47.6007 6.84536H42.5402L35.1543 13.9632L37.3639 1.05029H32.9671ZM55.9002 6.53022C51.0292 6.53022 46.8934 10.1838 46.0366 15.1915C45.1367 20.4513 47.9228 23.9473 52.9836 23.9473C57.0954 23.9473 60.4086 21.774 62.0095 17.9631H57.6447C56.853 19.6323 55.3947 20.5774 53.4653 20.5774C51.2197 20.5774 50.1497 19.0656 50.3338 16.3255H62.3215C64.0498 10.8453 61.2456 6.53022 55.9002 6.53022ZM55.2557 9.74289C57.3433 9.74289 58.4183 11.2233 58.146 13.554H50.8713C51.6765 11.0658 53.1997 9.74289 55.2557 9.74289Z" fill="white"/>
<path id="path13227" d="M3.92518 1.06885L0.786934 19.157H0.772676L0 23.5901L24.7017 23.6638L22.1448 19.2234L17.0041 19.2079L5.30243 19.1727L8.44266 1.07119L3.92518 1.06885ZM17.0043 19.2055L22.145 19.2209L18.9538 13.6791L23.2987 7.83276L17.7724 7.81609L16.536 9.47982L13.6444 13.3703L17.0043 19.2055ZM17.7724 7.81609L23.2987 7.83208L26.5863 3.4092L11.2022 3.3629L10.4327 7.79344L17.7724 7.81609Z" fill="white"/>
</g>
</g>
</svg>
